<?xml version="1.0" encoding="UTF-8"?> <!-- Generator: Adobe Illustrator 19.0.0, SVG Export Plug-In . SVG Version: 6.00 Build 0) --> <svg xmlns="http://www.w3.org/2000/svg" xmlns:xlink="http://www.w3.org/1999/xlink" version="1.1" id="Capa_1" x="0px" y="0px" viewBox="0 0 480 480" style="enable-background:new 0 0 480 480;" xml:space="preserve"> <g> <path style="fill:#3D97F6;" d="M416,8h-56l-0.912,32h57.824L416,8z"></path> <path style="fill:#3D97F6;" d="M359.088,40L352,288h72l-7.088-248H359.088z"></path> </g> <g> <path style="fill:#3D97F6;" d="M417.368,56l-0.456-16h-57.824l-0.456,16H417.368z"></path> <path style="fill:#3D97F6;" d="M352.872,257.368L352,288h72l-2.04-71.272L352.872,257.368z"></path> </g> <path style="fill:#fff;" d="M312,296v-80l-144,80v-80L24,296v176h144h144h144V216L312,296z"></path> <g> <path style="fill:#3D97F6;" d="M64,328h64v32H64V328z"></path> <path style="fill:#3D97F6;" d="M208,328h64v32h-64V328z"></path> <path style="fill:#3D97F6;" d="M352,328h64v32h-64V328z"></path> </g> <g> <path style="fill:#3D97F6;" d="M176,416h64v56h-64V416z"></path> <path style="fill:#3D97F6;" d="M240,416h64v56h-64V416z"></path> </g> <g> <path style="fill:#3D97F6;" d="M240,468v4h64v-56h-12L240,468z"></path> <path style="fill:#3D97F6;" d="M176,468v4h64v-56h-12L176,468z"></path> </g> <path style="fill:#4398D1;" d="M232,416h16v56h-16V416z"></path> <g> <path style="fill:#3D97F6;" d="M84,360h44v-32h-12L84,360z"></path> <path style="fill:#3D97F6;" d="M228,360h44v-32h-12L228,360z"></path> <path style="fill:#3D97F6;" d="M372,360h44v-32h-12L372,360z"></path> </g> <path d="M460.056,209.104c-2.442-1.434-5.46-1.471-7.936-0.096l-22.016,12.232L424,7.776c-0.121-4.331-3.668-7.778-8-7.776h-56 c-4.332-0.002-7.879,3.445-8,7.776L344.544,268.8L320,282.4V216c-0.002-4.418-3.586-7.998-8.004-7.996 c-1.356,0.001-2.69,0.346-3.876,1.004L176,282.4V216c-0.002-4.418-3.586-7.998-8.004-7.996c-1.356,0.001-2.69,0.346-3.876,1.004 l-144,80c-2.541,1.409-4.119,4.086-4.12,6.992v176c0,4.418,3.582,8,8,8h432c4.418,0,8-3.582,8-8V216 C464,213.165,462.5,210.541,460.056,209.104z M366.856,48h42.288l5.2,181.992L360.8,259.728L366.856,48z M408.224,16l0.464,16 H367.32l0.456-16H408.224z M184,464v-40h48v40H184z M248,464v-40h48v40H248z M448,464H312v-48c0-4.418-3.582-8-8-8H176 c-4.418,0-8,3.582-8,8v48H32V300.712L160,229.6V296c0.002,4.418,3.586,7.998,8.004,7.996c1.356-0.001,2.69-0.346,3.876-1.004 L304,229.6V296c0.002,4.418,3.586,7.998,8.004,7.996c1.356-0.001,2.69-0.346,3.876-1.004l75.448-41.912L426.4,241.6l21.6-12V464z"></path> <path d="M128,320H64c-4.418,0-8,3.582-8,8v32c0,4.418,3.582,8,8,8h64c4.418,0,8-3.582,8-8v-32C136,323.582,132.418,320,128,320z M120,352H72v-16h48V352z"></path> <path d="M272,320h-64c-4.418,0-8,3.582-8,8v32c0,4.418,3.582,8,8,8h64c4.418,0,8-3.582,8-8v-32C280,323.582,276.418,320,272,320z M264,352h-48v-16h48V352z"></path> <path d="M416,320h-64c-4.418,0-8,3.582-8,8v32c0,4.418,3.582,8,8,8h64c4.418,0,8-3.582,8-8v-32C424,323.582,420.418,320,416,320z M408,352h-48v-16h48V352z"></path> <g> </g> <g> </g> <g> </g> <g> </g> <g> </g> <g> </g> <g> </g> <g> </g> <g> </g> <g> </g> <g> </g> <g> </g> <g> </g> <g> </g> <g> </g> </svg> 