<?xml version="1.0" encoding="UTF-8"?> <!-- Generator: Adobe Illustrator 19.0.0, SVG Export Plug-In . SVG Version: 6.00 Build 0) --> <svg xmlns="http://www.w3.org/2000/svg" xmlns:xlink="http://www.w3.org/1999/xlink" version="1.1" id="Capa_1" x="0px" y="0px" viewBox="0 0 512 512" style="enable-background:new 0 0 512 512;" xml:space="preserve"> <path style="fill:#FFF;" d="M153.6,8.533h204.8c14.14,0,25.6,11.46,25.6,25.6v443.733c0,14.14-11.46,25.6-25.6,25.6H153.6 c-14.14,0-25.6-11.46-25.6-25.6V34.133C128,19.994,139.46,8.533,153.6,8.533z"></path> <path style="fill:#FFF;" d="M358.4,8.533h-25.028L188.186,503.467H358.4c14.14,0,25.6-11.46,25.6-25.6l0,0V34.133 C384,19.994,372.54,8.533,358.4,8.533z"></path> <rect x="128" y="76.8" style="fill:#FFF;" width="256" height="358.4"></rect> <rect x="300.104" y="334.25" transform="matrix(-0.7071 0.7071 -0.7071 -0.7071 806.9297 382.5315)" style="fill:#FFF;" width="48.273" height="48.273"></rect> <rect x="221.867" y="460.8" style="fill:#126099;" width="68.267" height="17.067"></rect> <rect x="220.515" y="127.699" transform="matrix(-0.7071 0.7071 -0.7071 -0.7071 570.4765 79.4291)" style="fill:#3D81F6;" width="96.545" height="60.33"></rect> <path style="fill:#3D97F6;" d="M256,34.133c-25.225,0-45.67,20.454-45.662,45.679c0,9.011,2.671,17.826,7.663,25.318L256,162.133 l37.999-57.003c13.986-20.992,8.311-49.34-12.681-63.334C273.826,36.804,265.011,34.133,256,34.133z M256,93.867 c-9.429,0-17.067-7.637-17.067-17.067S246.571,59.733,256,59.733c9.429,0,17.067,7.637,17.067,17.067S265.429,93.867,256,93.867z"></path> <polygon style="fill:#FFF;" points="307.2,435.2 230.4,358.4 153.6,435.2 128,435.2 128,341.333 170.667,298.667 128,256 128,187.733 204.8,264.533 384,85.333 384,204.8 264.533,324.267 375.467,435.2 "></polygon> <path style="fill:#3D97F6;" d="M170.667,384c-2.261,0-4.437-0.896-6.033-2.5l-17.067-17.067c-3.337-3.328-3.337-8.738,0-12.066 c0.939-0.939,2.082-1.647,3.337-2.065l25.6-8.533c4.471-1.485,9.301,0.939,10.786,5.41c0.58,1.749,0.58,3.635,0,5.385l-8.533,25.6 C177.596,381.645,174.336,384,170.667,384z"></path> <g> <rect x="201.261" y="315.736" transform="matrix(-0.7071 0.7071 -0.7071 -0.7071 593.4656 402.717)" style="fill:#3E8CC7;" width="24.132" height="17.067"></rect> <rect x="235.403" y="281.596" transform="matrix(-0.7071 0.7071 -0.7071 -0.7071 627.6086 320.2942)" style="fill:#3E8CC7;" width="24.132" height="17.067"></rect> <rect x="269.537" y="247.456" transform="matrix(-0.7071 0.7071 -0.7071 -0.7071 661.7371 237.8773)" style="fill:#3E8CC7;" width="24.132" height="17.067"></rect> <path style="fill:#3E8CC7;" d="M313.233,236.433l-12.066-12.066l11.034-11.034L301.167,202.3l12.066-12.066L330.3,207.3 c3.328,3.328,3.328,8.738,0,12.066L313.233,236.433z"></path> </g> <path d="M358.4,512c18.85,0,34.133-15.283,34.133-34.133V34.133C392.533,15.283,377.25,0,358.4,0H153.6 c-18.85,0-34.133,15.283-34.133,34.133v443.733c0,18.85,15.283,34.133,34.133,34.133H358.4z M310.733,426.667l-74.3-74.3 c-3.328-3.328-8.738-3.328-12.066,0l-74.3,74.3h-13.534v-81.801L176.7,304.7c3.328-3.328,3.328-8.738,0-12.066l-40.166-40.166 v-44.134l62.234,62.234c3.328,3.328,8.738,3.328,12.066,0l164.634-164.634v95.334L258.5,318.234c-3.328,3.328-3.328,8.738,0,12.066 l96.367,96.367H310.733z M286.601,426.667H174.199l56.201-56.201L286.601,426.667z M202.069,85.333 c0.905,8.772,3.934,17.195,8.832,24.533l20.48,30.72l-24.064,24.064c-3.328,3.328-3.328,8.738,0,12.066l36.617,36.617L204.8,252.467 l-68.267-68.267V85.333H202.069z M309.931,85.333h62.003l-47.667,47.667l-23.151-23.159 C306.005,102.511,309.026,94.097,309.931,85.333z M306.466,354.133l17.801-17.801l22.067,22.067l-17.801,17.801L306.466,354.133z M364.433,364.433c3.328-3.328,3.328-8.738,0-12.066L330.3,318.234c-3.328-3.328-8.738-3.328-12.066,0L294.4,342.067l-17.801-17.801 l98.867-98.867v197.734l-34.867-34.867L364.433,364.433z M256,201.267l-30.601-30.601l15.625-15.616l7.876,11.819 c2.611,3.925,7.91,4.983,11.836,2.364c0.939-0.623,1.741-1.425,2.364-2.364l28.356-42.539l20.745,20.736L256,201.267z M286.899,100.403L256,146.773l-30.899-46.345c-11.375-17.067-6.767-40.124,10.3-51.499s40.124-6.767,51.499,10.3 c8.32,12.476,8.32,28.723,0,41.199L286.899,100.403L286.899,100.403z M136.533,320.734v-44.134l22.067,22.067L136.533,320.734z M153.6,17.067h204.8c9.429,0,17.067,7.637,17.067,17.067v34.133h-66.441c-1.109-4.898-2.867-9.617-5.239-14.046 c-14.148-26.394-47.01-36.318-73.404-22.17c-9.412,5.043-17.126,12.757-22.17,22.17c-2.372,4.429-4.13,9.148-5.239,14.046h-66.441 V34.133C136.533,24.704,144.171,17.067,153.6,17.067z M136.533,477.867v-34.133h238.933v34.133c0,9.429-7.637,17.067-17.067,17.067 H153.6C144.171,494.933,136.533,487.296,136.533,477.867z"></path> <rect x="221.867" y="460.8" width="68.267" height="17.067"></rect> <circle cx="256" cy="76.8" r="17.067"></circle> <path d="M176.503,341.769l-25.6,8.533c-4.471,1.493-6.886,6.323-5.402,10.795c0.418,1.254,1.126,2.398,2.065,3.337l17.067,17.067 c3.337,3.328,8.738,3.328,12.066-0.009c0.93-0.939,1.638-2.074,2.057-3.328l8.533-25.6c1.493-4.471-0.93-9.301-5.402-10.795 C180.139,341.188,178.253,341.188,176.503,341.769z"></path> <rect x="201.261" y="315.736" transform="matrix(-0.7071 0.7071 -0.7071 -0.7071 593.4656 402.717)" width="24.132" height="17.067"></rect> <rect x="235.403" y="281.596" transform="matrix(-0.7071 0.7071 -0.7071 -0.7071 627.6086 320.2942)" width="24.132" height="17.067"></rect> <rect x="269.537" y="247.456" transform="matrix(-0.7071 0.7071 -0.7071 -0.7071 661.7371 237.8773)" width="24.132" height="17.067"></rect> <path d="M313.233,236.433l17.067-17.067c3.328-3.328,3.328-8.738,0-12.066l-17.067-17.067L301.167,202.3l11.034,11.034 l-11.034,11.034L313.233,236.433z"></path> <g> </g> <g> </g> <g> </g> <g> </g> <g> </g> <g> </g> <g> </g> <g> </g> <g> </g> <g> </g> <g> </g> <g> </g> <g> </g> <g> </g> <g> </g> </svg> 