<?xml version="1.0" encoding="UTF-8"?> <!-- Generator: Adobe Illustrator 21.0.0, SVG Export Plug-In . SVG Version: 6.00 Build 0) --> <svg xmlns="http://www.w3.org/2000/svg" xmlns:xlink="http://www.w3.org/1999/xlink" version="1.1" id="Capa_1" x="0px" y="0px" viewBox="0 0 609.677 609.677" style="enable-background:new 0 0 609.677 609.677;" xml:space="preserve"> <g> <g> <g id="filled_outline_27_"> <path style="fill:#FFF;" d="M375.968,107.202c0-14.033-11.37-25.403-25.403-25.403c14.033,0,25.403-11.37,25.403-25.403 c0-0.874-0.041-1.758-0.132-2.622c-1.839-13.271-13.332-23.066-26.724-22.782H75.356c-9.46,0-18.798,2.205-27.263,6.432L0,61.476 v203.226h72.846c38.765,0,76.809-10.537,110.057-30.484h166.208c13.393,0.285,24.885-9.511,26.724-22.782 c1.443-13.951-8.688-26.44-22.65-27.893c-0.874-0.091-1.748-0.132-2.622-0.132c14.033,0,25.403-11.37,25.403-25.403 s-11.37-25.403-25.403-25.403C364.597,132.605,375.968,121.234,375.968,107.202z"></path> <rect x="111.774" y="163.089" style="fill:#3D81F6;" width="386.129" height="203.226"></rect> <rect x="111.774" y="122.444" style="fill:#3D81F6;" width="386.129" height="203.226"></rect> <rect x="111.774" y="81.798" style="fill:#3D97F6;" width="386.129" height="203.226"></rect> <polygon style="fill:#3D97F6;" points="213.387,285.024 497.903,285.024 497.903,81.798 416.613,81.798 "></polygon> <path style="fill:#3D81F6;" d="M436.935,244.379H172.742c0-11.228-9.094-20.323-20.323-20.323l0,0v-81.29l0,0 c11.228,0,20.323-9.094,20.323-20.323h264.194c0,11.228,9.094,20.323,20.323,20.323l0,0v81.29l0,0 C446.03,224.056,436.935,233.151,436.935,244.379z"></path> <ellipse style="fill:#3D97F6;" cx="304.839" cy="183.411" rx="50.806" ry="60.968"></ellipse> <rect x="396.29" y="173.25" style="fill:#3D97F6;" width="20.323" height="20.323"></rect> <rect x="193.065" y="173.25" style="fill:#3D97F6;" width="20.323" height="20.323"></rect> <path style="fill:#FFF;" d="M0,224.056h30.484c44.893,0,81.29-36.398,81.29-81.29h81.29c33.675,0,60.968-27.293,60.968-60.968 H0"></path> <path style="fill:#FFF;" d="M324.369,435.035l-2.591,1.412h-77.907c-16.837,0-30.484,13.647-30.484,30.484 s13.647,30.484,30.484,30.484h-20.323l-115.544-52.92c-16.675-7.641-36.377-0.315-44.019,16.36 c-1.992,4.339-3.018,9.054-3.018,13.83v2.215c0,12.58,7.113,24.082,18.361,29.701l118.47,59.24 c16.939,8.454,35.605,12.854,54.536,12.844h215.084V436.427C423.208,411.177,369.068,410.648,324.369,435.035z"></path> <rect x="467.419" y="436.448" style="fill:#FFF;" width="132.097" height="142.258"></rect> <rect x="497.903" y="527.899" style="fill:#7A4930;" width="20.323" height="20.323"></rect> <path style="fill:#F2A46F;" d="M325.161,507.556h-81.29c-5.609,0-10.161-4.552-10.161-10.161s4.552-10.161,10.161-10.161h81.29 c5.609,0,10.161,4.552,10.161,10.161S330.77,507.556,325.161,507.556z"></path> <path d="M101.613,272.831v93.484c0,5.609,4.552,10.161,10.161,10.161h386.129c5.609,0,10.161-4.552,10.161-10.161V81.798 c0-5.609-4.552-10.161-10.161-10.161H382.562c2.317-4.745,3.536-9.958,3.567-15.242c0-19.642-15.923-35.565-35.565-35.565H76.626 c-11.635,0-23.158,2.215-33.949,6.544l-36.296,14.5l7.56,18.88l36.255-14.52c8.403-3.363,17.366-5.091,26.419-5.081h273.948 c8.414,0,15.242,6.828,15.242,15.242s-6.828,15.242-15.242,15.242H0V91.96h242.855c-4.857,23.645-25.657,40.615-49.79,40.645 h-81.29c-5.609,0-10.161,4.552-10.161,10.161c-0.041,39.263-31.866,71.088-71.129,71.129H0v20.323h30.484 c27.659-0.01,53.814-12.559,71.129-34.132v52.249c-9.521,1.412-19.134,2.144-28.767,2.205H0v20.323h72.846 C82.469,274.802,92.082,274.121,101.613,272.831z M121.935,295.185h365.806v20.323H121.935V295.185z M121.935,356.153v-20.323 h365.806v20.323H121.935z M487.742,91.96v182.903H121.935V152.927h20.323v71.129c0,5.609,4.552,10.161,10.161,10.161 c5.609,0,10.161,4.552,10.161,10.161c0,5.609,4.552,10.161,10.161,10.161h264.194c5.609,0,10.161-4.552,10.161-10.161 c0-5.609,4.552-10.161,10.161-10.161s10.161-4.552,10.161-10.161v-81.29c0-5.609-4.552-10.161-10.161-10.161 s-10.161-4.552-10.161-10.161c0-5.609-4.552-10.161-10.161-10.161H257.233c3.059-6.422,5.131-13.281,6.148-20.323 C263.381,91.96,487.742,91.96,487.742,91.96z M264.194,183.411c0-28.015,18.229-50.806,40.645-50.806 s40.645,22.792,40.645,50.806s-18.229,50.806-40.645,50.806C282.423,234.218,264.194,211.426,264.194,183.411z M347.425,132.605 h81.087c3.089,8.668,9.917,15.496,18.585,18.585v64.443c-8.668,3.089-15.496,9.917-18.585,18.585h-81.087 C371.934,204.78,371.934,162.042,347.425,132.605z M242.763,132.605h19.5c-24.509,29.437-24.509,72.176,0,101.613h-81.087 c-3.089-8.668-9.917-15.496-18.595-18.585v-62.705h30.484c18.585,0,36.428-7.296,49.689-20.323H242.763z"></path> <rect x="396.29" y="173.25" width="20.323" height="20.323"></rect> <rect x="193.065" y="173.25" width="20.323" height="20.323"></rect> <path d="M599.516,426.266H469.929c-46.783-25.861-103.554-25.932-150.387-0.173l-75.671,0.173 c-22.446,0-40.645,18.189-40.655,40.635c0,3.597,0.478,7.184,1.423,10.659l-92.407-42.322 c-21.776-9.968-47.514-0.406-57.482,21.369c-2.601,5.68-3.943,11.838-3.943,18.077v2.215c-0.061,16.441,9.237,31.48,23.97,38.786 l118.481,59.24c18.351,9.145,38.572,13.911,59.078,13.921h347.181c5.609,0,10.161-4.552,10.161-10.161V436.427 C609.677,430.818,605.125,426.266,599.516,426.266z M202.352,556.747l-118.481-59.24c-7.824-3.882-12.773-11.868-12.742-20.607 v-2.215c-0.03-12.712,10.253-23.056,22.965-23.086c3.343-0.01,6.635,0.711,9.674,2.103l115.544,52.93 c1.331,0.61,2.774,0.925,4.237,0.925h101.613c5.609,0,10.161-4.552,10.161-10.161s-4.552-10.161-10.161-10.161h-81.29 c-11.228,0-20.323-9.094-20.323-20.323c0-11.228,9.094-20.323,20.323-20.323h77.907c1.697,0,3.363-0.427,4.857-1.229l2.601-1.423 c39.751-21.867,87.804-22.395,128.022-1.412v126H252.335C234.99,568.514,217.878,564.48,202.352,556.747z M589.355,568.524 H477.581V446.589h111.774V568.524z"></path> <rect x="497.903" y="527.899" width="20.323" height="20.323"></rect> </g> </g> </g> <g> </g> <g> </g> <g> </g> <g> </g> <g> </g> <g> </g> <g> </g> <g> </g> <g> </g> <g> </g> <g> </g> <g> </g> <g> </g> <g> </g> <g> </g> </svg> 